# AST/ASF file generated using VICON BodyLanguage
# -----------------------------------------------
:version 1.10
:name VICON
:units
  mass 1.0
  length 0.45
  angle deg
:documentation
   .ast/.asf automatically generated from VICON data using
   VICON BodyBuilder and BodyLanguage model FoxedUp or BRILLIANT.MOD
:root
   order TX TY TZ RX RY RZ
   axis XYZ
   position 0 0 0  
   orientation 0 0 0 
:bonedata
  begin
     id 1 
     name lhipjoint
     direction 0.521452 -0.77106 0.36545 
     length 2.0933 
     axis 0 0 0  XYZ
  end
  begin
     id 2 
     name lfemur
     direction 0.34202 -0.939693 0  
     length 6.83441  
     axis 0 0 20  XYZ
    dof rx ry rz
    limits (-160.0 20.0)
           (-70.0 70.0)
           (-60.0 70.0)
  end
  begin
     id 3 
     name ltibia
     direction 0.34202 -0.939693 0   
     length 7.28749   
     axis 0 0 20   XYZ
    dof rx
    limits (-10.0 170.0)
  end
  begin
     id 4 
     name lfoot
     direction 0.100608 -0.276418 0.955757   
     length 1.52195   
     axis -90 7.62852e-016 20   XYZ
    dof rx rz
    limits (-45.0 90.0)
           (-70.0 20.0)
  end
  begin
     id 5 
     name ltoes
     direction 1.53558e-011 -4.21907e-011 1   
     length 0.770459   
     axis -90 7.62852e-016 20   XYZ
    dof rx
    limits (-90.0 20.0)
  end
  begin
     id 6 
     name rhipjoint
     direction -0.488071 -0.788702 0.373812   
     length 2.04648  
     axis 0 0 0  XYZ 
  end
  begin
     id 7 
     name rfemur
     direction -0.34202 -0.939693 0   
     length 6.92583   
     axis 0 0 -20   XYZ
    dof rx ry rz
    limits (-160.0 20.0)
           (-70.0 70.0)
           (-70.0 60.0)
  end
  begin
     id 8 
     name rtibia
     direction -0.34202 -0.939693 0   
     length 7.41043   
     axis 0 0 -20   XYZ
    dof rx
    limits (-10.0 170.0)
 end
 begin
     id 9 
     name rfoot
     direction -0.0784433 -0.215521 0.973343   
     length 1.67708  
     axis -90 -7.62852e-016 -20   XYZ
    dof rx rz
    limits (-45.0 90.0)
           (-20.0 70.0)
  end
  begin
     id 10 
     name rtoes
     direction -1.53551e-011 -4.21842e-011 1   
     length 0.849787   
     axis -90 -7.62852e-016 -20   XYZ
    dof rx
    limits (-90.0 20.0)
  end
  begin
     id 11 
     name lowerback
     direction -0.0122332 0.997575 -0.0685192   
     length 1.98724   
     axis 0 0 0   XYZ
    dof rx ry rz
    limits (-20.0 45.0)
           (-30.0 30.0)
           (-30.0 30.0)
  end
  begin
     id 12 
     name upperback
     direction 0.0182347 0.999724 -0.0148421   
     length 1.99029   
     axis 0 0 0   XYZ
    dof rx ry rz
    limits (-20.0 45.0)
           (-30.0 30.0)
           (-30.0 30.0)
  end
  begin
     id 13 
     name thorax
     direction 0.0242908 0.99956 0.0170184   
     length 1.99573   
     axis 0 0 0   XYZ
    dof rx ry rz
    limits (-20.0 45.0)
           (-30.0 30.0)
           (-30.0 30.0)
  end
  begin
     id 14 
     name lowerneck
     direction 0.0654488 0.985533 0.156338   
     length 1.4285   
     axis 0 0 0   XYZ
    dof rx ry rz
    limits (-20.0 45.0)
           (-30.0 30.0)
           (-30.0 30.0)
  end
  begin
     id 15 
     name upperneck
     direction -0.02953 0.998556 -0.0448842   
     length 1.44709   
     axis 0 0 0   XYZ
    dof rx ry rz
    limits (-20.0 45.0)
           (-30.0 30.0)
           (-30.0 30.0)
  end
  begin
     id 16
     name head
     direction -0.0155588 0.999386 -0.0314063  
     length 1.44689  
     axis 0 0 0   XYZ
    dof rx ry rz
    limits (-20.0 45.0)
           (-30.0 30.0)
           (-30.0 30.0)
  end
  begin
     id 17 
     name lclavicle
     direction 0.968229 0.236071 -0.0824755  
     length 3.60593  
     axis 0 0 0   XYZ
    dof ry rz
    limits (-20.0 10.0)
           (0.0 20.0)
  end
  begin
     id 18 
     name lhumerus
     direction 1 -4.48968e-011 7.8138e-029   
     length 5.06035   
     axis 180 -30 -90   XYZ
    dof rx ry rz
    limits (-60.0 90.0)
           (-90.0 90.0)
           (-90.0 90.0)
  end
  begin
     id 19
     name lradius
     direction 1 -4.48967e-011 9.02887e-028   
     length 3.1478   
     axis 180 -30 -90   XYZ
    dof rx
    limits (-10.0 170.0)
  end
  begin
     id 20
     name lwrist
     direction 1 -4.48961e-011 7.20928e-028   
     length 1.5739   
     axis -5.52449e-016 90 90   XYZ
    dof ry
    limits (-180.0 0.0)
 end
  begin
     id 21 
     name lhand
     direction 1 -4.48972e-011 1.44186e-027   
     length 0.606747   
     axis -9.20027e-016 90 90   XYZ
    dof rx rz
    limits (-90.0 90.0)
           (-45.0 45.0)
  end
  begin
     id 22 
     name lfingers
     direction 1 -4.48943e-011 2.88371e-027   
     length 0.489175   
     axis -1.84005e-015 90 90   XYZ
    dof rx
    limits (0.0 90.0)
  end
  begin
     id 23
     name lthumb
     direction 0.707107 -6.34917e-011 0.707107   
     length 0.70236   
     axis -90 45 2.85299e-015   XYZ
    dof rx rz
    limits (-45.0 45.0)
           (-45.0 45.0)
  end
  begin
     id 24 
     name rclavicle
     direction -0.978165 0.207816 0.0022268   
     length 3.35425  
     axis 0 0 0   XYZ 
    dof ry rz
    limits (-10.0 20.0)
           (-20.0 0.0)
  end
  begin
     id 25 
     name rhumerus
     direction -1 -4.48964e-011 -4.02159e-027  
     length 5.12273   
     axis 180 30 90   XYZ
    dof rx ry rz
    limits (-90.0 60.0)
           (-90.0 90.0)
           (-90.0 90.0)
  end
  begin
     id 26 
     name rradius
     direction -1 -4.48966e-011 1.62746e-027   
     length 3.422   
     axis 180 30 90   XYZ
    dof rx
    limits (-10.0 170.0)
  end
  begin
     id 27 
     name rwrist
     direction -1 -4.4896e-011 7.20928e-028   
     length 1.711   
     axis -5.52449e-016 -90 -90   XYZ
    dof ry
    limits (-180.0 0.0)
  end
  begin
     id 28
     name rhand
     direction -1 -4.48979e-011 1.44186e-027   
     length 0.704599   
     axis -9.20027e-016 -90 -90   XYZ
    dof rx rz
    limits (-90.0 90.0)
           (-45.0 45.0)
  end
  begin
     id 29
     name rfingers
     direction -1 -4.48962e-011 2.88371e-027   
     length 0.568066   
     axis -1.84005e-015 -90 -90   XYZ
    dof rx
    limits (0.0 90.0)
  end
  begin
     id 30
     name rthumb
     direction -0.707107 -6.34949e-011 0.707107   
     length 0.815633   
     axis -90 -45 -2.85299e-015   XYZ
    dof rx rz
    limits (-45.0 45.0)
           (-45.0 45.0)
  end
:hierarchy
  begin
    root lhipjoint rhipjoint lowerback
    lhipjoint lfemur
    lfemur ltibia
    ltibia lfoot
    lfoot ltoes
    rhipjoint rfemur
    rfemur rtibia
    rtibia rfoot
    rfoot rtoes
    lowerback upperback
    upperback thorax
    thorax lowerneck lclavicle rclavicle
    lowerneck upperneck
    upperneck head
    lclavicle lhumerus
    lhumerus lradius
    lradius lwrist
    lwrist lhand lthumb
    lhand lfingers
    rclavicle rhumerus
    rhumerus rradius
    rradius rwrist
    rwrist rhand rthumb
    rhand rfingers
  end

#!OML:ASF E:\id_vita\Project 1\Capture day 1\Session 1\Male1.ASF
:FULLY-SPECIFIED
:DEGREES
370
root 4.61373 16.0317 1.80787 -242.371 93.2339 -247.273
lowerback -3.25699 1.52756 -0.780564
upperback 3.37771 2.12374 -0.202212
thorax 5.29986 1.03795 0.394179
lowerneck -7.66948 -0.0181613 6.59759
upperneck 4.48966 -0.635699 -0.89181
head 2.77305 -0.218738 -1.47888
rclavicle 2.41523e-014 2.78299e-015
rhumerus -20.266 -0.877379 -87.3869
rradius 33.8797
rwrist -0.76958
rhand -25.1591 36.6002
rfingers 7.12502
rthumb 1.35791 6.62477
lclavicle 2.41523e-014 2.78299e-015
lhumerus -32.3765 23.4268 68.2447
lradius 2.47103
lwrist -7.82891
lhand -16.7229 50.9608
lfingers 7.12502
lthumb 9.50271 80.7265
rfemur 19.4154 5.68605 27.007
rtibia -3.81667e-014
rfoot -9.83712 -7.77202
rtoes -5.73975
lfemur -33.6056 -2.63105 -15.5878
ltibia 25.9226
lfoot -8.58736 0.504485
ltoes 14.5574
371
root 4.7799 16.0386 1.79581 -236.195 93.3455 -241.054
lowerback -3.41449 1.55421 -0.972957
upperback 3.28586 2.17215 -0.259511
thorax 5.28841 1.05502 0.449328
lowerneck -7.14003 -0.0571636 7.1885
upperneck 4.18382 -0.673398 -1.38798
head 2.57321 -0.251021 -1.74214
rclavicle -2.38542e-015 1.19271e-015
rhumerus -20.6035 -1.13471 -87.5855
rradius 33.0958
rwrist -0.133496
rhand -25.4168 37.1509
rfingers 7.12502
rthumb 1.10905 7.17402
lclavicle -2.38542e-015 1.19271e-015
lhumerus -32.6042 23.7344 68.0107
lradius 2.61174
lwrist -8.11998
lhand -16.3988 51.2809
lfingers 7.12502
lthumb 9.81543 81.0321
rfemur 20.0754 6.0158 26.9295
rtibia 4.13472e-014
rfoot -9.00431 -7.34165
rtoes -5.72236
lfemur -33.3401 -2.14098 -15.7435
ltibia 26.3057
lfoot -7.95601 1.08263
ltoes 18.323
372
root 4.94946 16.0465 1.77991 -229.206 93.227 -234.036
lowerback -3.68746 1.56921 -1.35792
upperback 3.29602 2.226 -0.384799
thorax 5.44542 1.0679 0.547983
lowerneck -7.30932 -0.107264 7.81803
upperneck 4.4016 -0.795838 -1.76489
head 2.67737 -0.308553 -1.99251
rclavicle 1.03368e-014 -1.19271e-015
rhumerus -20.7564 -1.512 -87.6956
rradius 32.2268
rwrist 0.362945
rhand -25.2323 37.3262
rfingers 7.12502
rthumb 1.28716 7.35031
lclavicle 1.03368e-014 -1.19271e-015
lhumerus -32.4437 24.0981 68.0216
lradius 2.59392
lwrist -8.34129
lhand -16.3736 51.3814
lfingers 7.12502
lthumb 9.83968 81.1315
rfemur 20.6653 6.2444 26.5461
rtibia 6.36111e-015
rfoot -7.91535 -6.80083
rtoes -4.93149
lfemur -32.9331 -1.5432 -16.3188
ltibia 26.5125
lfoot -7.59383 1.10461
ltoes 19.7213
373
root 5.11719 16.0601 1.76428 -223.419 92.8874 -228.299
lowerback -4.12883 1.51294 -1.86072
upperback 3.26566 2.20109 -0.565437
thorax 5.65601 1.03701 0.653097
lowerneck -7.24866 -0.104399 7.96581
upperneck 4.58998 -0.800931 -1.79511
head 2.73054 -0.304474 -2.03166
rclavicle -5.46658e-015 -7.95139e-016
rhumerus -21.0586 -1.891 -87.9306
rradius 31.7895
rwrist 0.217642
rhand -24.8002 36.1066
rfingers 7.12502
rthumb 1.70458 6.1337
lclavicle -5.46658e-015 -7.95139e-016
lhumerus -32.4912 24.3218 67.9654
lradius 2.83298
lwrist -8.55888
lhand -16.5181 51.338
lfingers 7.12502
lthumb 9.70027 81.0946
rfemur 21.1391 6.22073 26.0392
rtibia -1.59028e-014
rfoot -6.58106 -6.26767
rtoes -4.42422
lfemur -32.5001 -1.01444 -17.0868
ltibia 26.517
lfoot -7.05256 0.427449
ltoes 19.3768
374
root 5.28667 16.0767 1.74936 -213.516 92.5619 -218.492
lowerback -4.61801 1.35056 -2.5936
upperback 3.0151 2.04772 -0.704126
thorax 5.65782 0.93488 0.915526
lowerneck -6.55798 -0.0458055 7.70202
upperneck 4.87527 -0.663183 -1.38066
head 2.70111 -0.21753 -1.8337
rclavicle 1.63997e-014 -7.15625e-015
rhumerus -21.8472 -1.80635 -88.2655
rradius 31.5241
rwrist -0.0976772
rhand -24.3572 34.824
rfingers 7.12502
rthumb 2.13241 4.85488
lclavicle 1.63997e-014 -7.15625e-015
lhumerus -33.247 24.6695 67.558
lradius 3.22983
lwrist -8.90957
lhand -16.4084 51.439
lfingers 7.12502
lthumb 9.80617 81.1906
rfemur 21.5536 6.25118 25.4149
rtibia 1.90833e-014
rfoot -5.13665 -5.6932
rtoes -3.50207
lfemur -31.9855 -0.72392 -17.8563
ltibia 26.3981
lfoot -6.22289 -0.933836
ltoes 17.8473
375
root 5.45601 16.0907 1.73376 -199.495 92.3273 -204.533
lowerback -4.96223 1.28436 -3.29144
upperback 3.04673 2.04232 -0.963938
thorax 5.87692 0.907616 1.04553
lowerneck -7.49556 0.0385955 7.58938
upperneck 5.51696 -0.654262 -0.953055
head 3.09665 -0.182326 -1.68822
rclavicle 8.74653e-015 1.59028e-015
rhumerus -22.0845 -2.38525 -88.5473
rradius 31.0037
rwrist 0.389013
rhand -23.663 35.1522
rfingers 7.12502
rthumb 2.80285 5.19082
lclavicle 8.74653e-015 1.59028e-015
lhumerus -32.9282 25.0251 67.5155
lradius 3.25646
lwrist -9.34952
lhand -16.1555 51.4844
lfingers 7.12502
lthumb 10.0501 81.2244
rfemur 21.9976 6.29737 24.7307
rtibia -3.49861e-014
rfoot -3.45702 -5.05719
rtoes -1.74119
lfemur -31.3596 -0.429897 -18.7177
ltibia 26.2672
lfoot -5.69865 -2.958
ltoes 13.9113
376
root 5.62475 16.1077 1.71665 -183.432 92.1971 -188.48
lowerback -5.20425 1.17531 -4.07525
upperback 2.93634 1.97653 -1.1407
thorax 5.88601 0.849246 1.29835
lowerneck -7.6452 0.10479 7.88057
upperneck 5.81344 -0.600916 -1.13622
head 3.23348 -0.148298 -1.8054
rclavicle -4.57205e-015 -4.77083e-015
rhumerus -22.7937 -2.90002 -88.6587
rradius 30.5429
rwrist 1.03841
rhand -24.3502 34.7416
rfingers 7.12502
rthumb 2.13917 4.77256
lclavicle -4.57205e-015 -4.77083e-015
lhumerus -33.2927 25.3001 67.3443
lradius 3.85928
lwrist -9.73753
lhand -15.734 51.2777
lfingers 7.12502
lthumb 10.4567 80.9977
rfemur 20.8514 6.2784 24.0621
rtibia 3.32199
rfoot -3.06302 -5.09122
rtoes -0.158221
lfemur -30.7229 0.165851 -19.7279
ltibia 26.2237
lfoot -6.28906 -4.63157
ltoes 12.6836
377
root 5.7955 16.1273 1.69718 -166.264 92.2085 -171.341
lowerback -5.56403 0.99715 -4.87794
upperback 2.82544 1.8274 -1.25393
thorax 5.96676 0.746279 1.62166
lowerneck -7.61855 0.154126 7.81218
upperneck 6.11214 -0.531624 -1.10079
head 3.33502 -0.105904 -1.78076
rclavicle -2.98177e-016 -7.95139e-016
rhumerus -23.3078 -3.18859 -88.7067
rradius 29.7273
rwrist 1.39163
rhand -24.3583 34.8499
rfingers 7.12502
rthumb 2.13131 4.88076
lclavicle -2.98177e-016 -7.95139e-016
lhumerus -33.7255 25.7465 67.2043
lradius 4.47005
lwrist -10.1474
lhand -15.399 51.0084
lfingers 7.12502
lthumb 10.7799 80.7118
rfemur 17.907 6.22093 23.345
rtibia 10.2421
rfoot -4.20998 -5.78657
rtoes 0.818054
lfemur -30.2234 0.954529 -20.8295
ltibia 26.3259
lfoot -7.41256 -4.17732
ltoes 7.77252
378
root 5.96743 16.138 1.67644 -152.664 92.0754 -157.685
lowerback -5.8436 0.732564 -5.40486
upperback 2.79938 1.54211 -1.33025
thorax 6.10994 0.58378 1.81253
lowerneck -7.9562 0.28699 7.47374
upperneck 6.75494 -0.383405 -0.7161
head 3.62889 -0.00631547 -1.59181
rclavicle -1.08338e-014 3.97569e-015
rhumerus -23.4202 -3.67709 -88.7615
rradius 28.4055
rwrist 1.89055
rhand -24.1862 34.6615
rfingers 7.12502
rthumb 2.29753 4.6941
lclavicle -1.08338e-014 3.97569e-015
lhumerus -33.7691 26.3358 67.1625
lradius 4.69086
lwrist -10.6847
lhand -15.0304 50.6016
lfingers 7.12502
lthumb 11.1355 80.2861
rfemur 16.3277 5.41116 22.6986
rtibia 14.5511
rfoot -4.17627 -5.60488
rtoes 0.541401
lfemur -29.716 1.69088 -21.7337
ltibia 26.5783
lfoot -8.37671 -4.64584
ltoes 3.29549
379
root 6.13075 16.1451 1.65693 -143.998 91.8373 -148.86
lowerback -5.78377 0.490736 -5.65173
upperback 2.68549 1.22963 -1.32162
thorax 5.97347 0.425213 1.92459
lowerneck -7.82449 0.257177 7.55651
upperneck 6.8401 -0.422753 -0.698159
head 3.63166 -0.0199158 -1.6024
rclavicle -3.08116e-015 -3.18055e-015
rhumerus -23.6172 -4.30579 -88.7346
rradius 26.9451
rwrist 2.55487
rhand -24.0531 34.9169
rfingers 7.12502
rthumb 2.4261 4.95098
lclavicle -3.08116e-015 -3.18055e-015
lhumerus -34.0196 26.7986 67.0465
lradius 5.05964
lwrist -11.3347
lhand -14.4254 50.017
lfingers 7.12502
lthumb 11.7189 79.6692
rfemur 15.0674 4.46812 22.3547
rtibia 18.2506
rfoot -3.53922 -5.08933
rtoes 1.07549
lfemur -29.1407 2.3475 -22.2681
ltibia 26.9546
lfoot -9.39862 -5.78505
ltoes -3.26431
380
root 6.28245 16.1585 1.63879 -136.189 91.699 -140.948
lowerback -5.54752 0.337865 -5.9315
upperback 2.47916 1.01675 -1.27189
thorax 5.63201 0.321018 2.10667
lowerneck -7.87745 0.23782 7.55148
upperneck 7.16187 -0.461656 -0.634983
head 3.75357 -0.0267572 -1.58593
rclavicle -1.78906e-015 -7.15625e-015
rhumerus -23.915 -4.92921 -88.5674
rradius 25.4785
rwrist 3.06541
rhand -23.819 36.7367
rfingers 7.12502
rthumb 2.65216 6.77342
lclavicle -1.78906e-015 -7.15625e-015
lhumerus -34.2743 27.1242 67.0264
lradius 5.45897
lwrist -12.1013
lhand -14.0894 49.4708
lfingers 7.12502
lthumb 12.0429 79.1043
rfemur 13.6837 3.63252 21.9972
rtibia 21.7512
rfoot -2.36394 -4.00246
rtoes 4.35821
lfemur -28.644 2.95721 -22.6948
ltibia 27.3441
lfoot -10.5768 -6.96733
ltoes -11.2895
381
root 6.42969 16.1738 1.61687 -124.115 91.5277 -128.74
lowerback -5.36663 0.161118 -5.87384
upperback 2.40867 0.772392 -1.46224
thorax 5.47679 0.213148 1.84964
lowerneck -8.24226 0.255896 7.44323
upperneck 7.49803 -0.48929 -0.298584
head 3.94213 -0.0165765 -1.46018
rclavicle -8.94531e-016 2.38542e-015
rhumerus -23.9638 -5.81283 -88.7084
rradius 23.9121
rwrist 3.6575
rhand -24.9024 37.0654
rfingers 7.12502
rthumb 1.60581 7.09172
lclavicle -8.94531e-016 2.38542e-015
lhumerus -34.0012 27.4346 66.8672
lradius 5.58542
lwrist -13.094
lhand -13.8584 48.9794
lfingers 7.12502
lthumb 12.2657 78.5997
rfemur 12.2893 2.84143 21.6616
rtibia 25.1669
rfoot -0.933492 -2.97834
rtoes 7.5006
lfemur -28.0527 3.34408 -23.0639
ltibia 27.6168
lfoot -11.1923 -7.52446
ltoes -7.51546
